<?xml version="1.0" encoding="UTF-8" standalone="no"?>
<!-- Generator: Adobe Illustrator 24.3.0, SVG Export Plug-In . SVG Version: 6.00 Build 0)  -->

<svg
   version="1.1"
   id="Layer_1"
   x="0px"
   y="0px"
   viewBox="0 0 568425.56 706245.25"
   xml:space="preserve"
   sodipodi:docname="seal_logo.svg"
   inkscape:version="1.4.3 (0d15f75042, 2025-12-25)"
   width="568425.56"
   height="706245.25"
   xmlns:inkscape="http://www.inkscape.org/namespaces/inkscape"
   xmlns:sodipodi="http://sodipodi.sourceforge.net/DTD/sodipodi-0.dtd"
   xmlns="http://www.w3.org/2000/svg"
   xmlns:svg="http://www.w3.org/2000/svg"><defs
   id="defs3" /><sodipodi:namedview
   id="namedview3"
   pagecolor="#ffffff"
   bordercolor="#999999"
   borderopacity="1"
   inkscape:showpageshadow="2"
   inkscape:pageopacity="0"
   inkscape:pagecheckerboard="0"
   inkscape:deskcolor="#d1d1d1"
   inkscape:zoom="0.5"
   inkscape:cx="4260"
   inkscape:cy="710"
   inkscape:window-width="1916"
   inkscape:window-height="1029"
   inkscape:window-x="0"
   inkscape:window-y="24"
   inkscape:window-maximized="1"
   inkscape:current-layer="g3-2-6-7"><inkscape:page
     x="0"
     y="0"
     width="568425.56"
     height="706245.25"
     id="page2"
     margin="0"
     bleed="0" /></sodipodi:namedview>
<style
   type="text/css"
   id="style1">
	.st0{fill:#FFFFFF;}
	.st1{fill:#1A1A1A;}
	.st2{fill:#502395;}
</style>



<g
   id="g3-3"
   transform="translate(-1596238.3,1021755.2)">
	
	
	<path
   class="st1"
   d="m 367.16952,-1616.7626 c 1.87,-8.87 2.95,-17.99 5.8,-26.53 14.34,-43.07 44.79,-69.18 88.04,-80.39 27.42,-7.11 54.2,-15.47 79.05,-29.29 49.85,-27.72 84.11,-68.98 105.77,-121.32 8.3,-20.05 12.56,-41.02 15.81,-62.33 1.97,-12.94 3.73,-25.99 6.99,-38.63 6.74,-26.09 24.5,-40.79 50.67,-45.57 13.66,-2.49 27.45,-4.27 40.52,-9.35 12.25,-4.76 23.4,-11.22 32.97,-20.29 0.57,-0.54 1.16,-1.07 1.75,-1.59 6.08,-5.36 11.21,-4.79 15.01,2.44 16.69,31.75 18.27,65.01 -5,94.92 -15.32,19.68 -25.78,41.62 -29.44,66.53 -1.98,13.48 -1.46,26.93 -0.09,40.4 1.72,16.81 4.74,33.62 4.81,50.44 0.2,50.85 -17.81,95.12 -51.52,132.99 -22.42,25.18 -49.66,43.44 -81.37,54.97 -15.46,5.62 -28.3,14.79 -38.18,28 -17.89,23.93 -42.38,36.48 -71.27,41.51 -0.65,0.11 -1.3,0.23 -1.94,0.35 -8.2,1.52 -16.67,1.32 -24.74,-0.8 -0.37,-0.1 -0.72,-0.19 -1.05,-0.29 8.22,-19.51 16.28,-38.66 24.61,-58.42 -36.11,-10.12 -69.14,-25.31 -97.28,-50.72 -2.46,9.46 -1.55,17.72 2.53,25.37 3.38,6.35 7.4,12.37 11.38,18.38 1.59,2.4 1.59,3.95 -0.99,5.36 -9.64,5.28 -18.96,11.27 -28.96,15.73 -13.19,5.88 -27.16,9.69 -41.73,10.38 -5.86,0.28 -9.06,-2.3 -10.6,-7.91 -0.73,-2.65 -1.08,-5.4 -1.6,-8.1 0.01,-8.86 0.03,-17.4 0.05,-26.24 z"
   id="path1-7-0"
   style="fill:#ffffff;fill-opacity:1" /><path
   class="st2"
   d="m 893.42952,-2121.5326 c -2.05,10.11 -5.23,19.78 -11.64,28.05 -13.4,17.27 -31.36,24.87 -52.91,24.16 -21.89,-0.72 -39.23,-10.23 -50.72,-28.92 -22.97,-37.36 -1.94,-84.57 41.34,-93.57 0.75,-0.16 1.49,-0.42 2.23,-0.63 6.57,0 13.13,0 19.7,0 0.74,0.21 1.47,0.47 2.23,0.63 20.13,4.23 35.12,15.29 43.95,33.94 2.7,5.71 3.93,12.13 5.83,18.22 -0.01,6.03 -0.01,12.08 -0.01,18.12 z"
   id="path2-5-0-6"
   style="fill:#ffffff;fill-opacity:1" /><path
   class="st1"
   d="m 703.11952,-1614.8226 c 12.51,-6.07 26.24,-14.54 32.21,-19.2 13.14,-10.25 16.41,-14.77 25.46,-25.95 2.65,-2.11 4.33,-2.22 6.92,0.19 12.68,11.8 25.55,23.38 38.34,35.06 0.67,0.61 1.24,1.32 2.34,2.51 -2.13,1.81 -4.04,3.71 -6.21,5.22 -8.89,6.19 -18.97,9.43 -29.52,11.28 -21.77,3.83 -43.07,2.35 -63.74,-5.88 -1.34,-0.53 -2.64,-1.17 -3.93,-1.81 -0.45,-0.23 -0.82,-0.62 -1.87,-1.42 z"
   id="path3-6-9-2"
   style="fill:#ffffff;fill-opacity:1" />
</g></svg>
