<?xml version="1.0" encoding="UTF-8" standalone="no"?>
<!-- Created with Inkscape (http://www.inkscape.org/) -->

<svg
   width="139.25549mm"
   height="173.01918mm"
   viewBox="0 0 139.25549 173.01918"
   version="1.1"
   id="svg1"
   xmlns="http://www.w3.org/2000/svg"
   xmlns:svg="http://www.w3.org/2000/svg">
  <defs
     id="defs1" />
  <g
     id="layer1"
     transform="translate(-35.189593,-61.912512)">
    <path
       class="st1"
       d="m 35.202814,214.22784 c 0.494771,-2.34685 0.780521,-4.75985 1.534584,-7.0194 3.794125,-11.3956 11.850687,-18.30387 23.293916,-21.26985 7.254875,-1.88119 14.340417,-4.0931 20.915312,-7.74965 13.189479,-7.33425 22.254104,-18.25095 27.984984,-32.09925 2.19604,-5.30489 3.32316,-10.8532 4.18306,-16.49147 0.52123,-3.42371 0.98689,-6.87652 1.84943,-10.22086 1.7833,-6.90298 6.4823,-10.79235 13.40644,-12.05706 3.61421,-0.65881 7.26281,-1.12977 10.72092,-2.47385 3.24114,-1.25942 6.19125,-2.96863 8.72331,-5.3684 0.15081,-0.142875 0.30692,-0.283104 0.46302,-0.420688 1.60867,-1.418166 2.96598,-1.267354 3.9714,0.645584 4.41589,8.400524 4.83394,17.200564 -1.32292,25.114254 -4.05342,5.207 -6.82096,11.01195 -7.78933,17.60272 -0.52388,3.56659 -0.38629,7.12523 -0.0238,10.68917 0.45508,4.44765 1.25412,8.89529 1.27264,13.34558 0.0529,13.45407 -4.71223,25.16717 -13.63133,35.18694 -5.93196,6.66221 -13.13921,11.4935 -21.52915,14.54415 -4.09046,1.48695 -7.48771,3.91318 -10.101789,7.40833 -4.733396,6.33148 -11.213042,9.652 -18.856854,10.98285 -0.171979,0.0291 -0.343958,0.0609 -0.513292,0.0926 -2.169583,0.40216 -4.410604,0.34925 -6.545791,-0.21167 -0.0979,-0.0265 -0.1905,-0.0503 -0.277813,-0.0767 2.174875,-5.16202 4.307417,-10.22879 6.511396,-15.45696 -9.554104,-2.67758 -18.293291,-6.6966 -25.738666,-13.41966 -0.650875,2.50296 -0.410104,4.68841 0.669396,6.71248 0.894291,1.6801 1.957916,3.27289 3.010958,4.86304 0.420687,0.635 0.420687,1.0451 -0.261938,1.41816 -2.550583,1.397 -5.0165,2.98186 -7.662333,4.1619 -3.489854,1.55575 -7.186083,2.56381 -11.041062,2.74638 -1.550459,0.0741 -2.397125,-0.60855 -2.804584,-2.09286 -0.193145,-0.70114 -0.28575,-1.42875 -0.423333,-2.14312 0.0026,-2.34421 0.0079,-4.60375 0.01323,-6.94267 z"
       id="path1-7"
       style="fill:#000000;fill-opacity:1;stroke-width:0.264583" />
    <path
       class="st2"
       d="m 174.44244,80.674112 c -0.5424,2.674938 -1.38377,5.233459 -3.07975,7.421563 -3.54542,4.569354 -8.29734,6.580187 -13.99911,6.392333 -5.79173,-0.1905 -10.3796,-2.706687 -13.41966,-7.65175 -6.07748,-9.884833 -0.51329,-22.375812 10.93787,-24.757062 0.19844,-0.04233 0.39423,-0.111125 0.59002,-0.166687 1.73832,0 3.47398,0 5.21229,0 0.1958,0.05556 0.38894,0.124354 0.59003,0.166687 5.32606,1.119188 9.29216,4.045479 11.62843,8.979958 0.71438,1.510771 1.03982,3.209396 1.54252,4.820709 -0.003,1.595437 -0.003,3.196166 -0.003,4.794249 z"
       id="path2-5-0"
       style="fill:#000000;fill-opacity:1;stroke-width:0.264583" />
    <path
       class="st1"
       d="m 124.08958,214.74113 c 3.30994,-1.60602 6.94267,-3.84704 8.52223,-5.08 3.47663,-2.71198 4.34182,-3.90789 6.73629,-6.86594 0.70115,-0.55827 1.14565,-0.58737 1.83092,0.0503 3.35492,3.12208 6.76011,6.18595 10.14413,9.27629 0.17727,0.16139 0.32808,0.34925 0.61912,0.6641 -0.56356,0.4789 -1.06892,0.9816 -1.64306,1.38113 -2.35215,1.63777 -5.01915,2.49502 -7.8105,2.9845 -5.75998,1.01335 -11.39561,0.62177 -16.86454,-1.55575 -0.35454,-0.14023 -0.6985,-0.30957 -1.03982,-0.4789 -0.11906,-0.0608 -0.21695,-0.16404 -0.49477,-0.37571 z"
       id="path3-6-9"
       style="fill:#000000;fill-opacity:1;stroke-width:0.264583" />
  </g>
</svg>
