<?xml version="1.0" encoding="UTF-8" standalone="no"?>
<!-- Created with Inkscape (http://www.inkscape.org/) -->

<svg
   width="1480"
   height="430"
   viewBox="0 0 391.58332 113.77083"
   version="1.1"
   id="svg1"
   xml:space="preserve"
   inkscape:version="1.4.3 (0d15f75042, 2025-12-25)"
   sodipodi:docname="wavies.svg"
   xmlns:inkscape="http://www.inkscape.org/namespaces/inkscape"
   xmlns:sodipodi="http://sodipodi.sourceforge.net/DTD/sodipodi-0.dtd"
   xmlns:xlink="http://www.w3.org/1999/xlink"
   xmlns="http://www.w3.org/2000/svg"
   xmlns:svg="http://www.w3.org/2000/svg"><sodipodi:namedview
     id="namedview1"
     pagecolor="#505050"
     bordercolor="#ffffff"
     borderopacity="1"
     inkscape:showpageshadow="0"
     inkscape:pageopacity="0"
     inkscape:pagecheckerboard="1"
     inkscape:deskcolor="#505050"
     inkscape:document-units="px"
     inkscape:zoom="0.23746926"
     inkscape:cx="345.30786"
     inkscape:cy="86.326964"
     inkscape:window-width="1712"
     inkscape:window-height="894"
     inkscape:window-x="0"
     inkscape:window-y="0"
     inkscape:window-maximized="1"
     inkscape:current-layer="layer1" /><defs
     id="defs1"><linearGradient
       id="linearGradient15"
       inkscape:collect="always"><stop
         style="stop-color:#7faabc;stop-opacity:1;"
         offset="0"
         id="stop15" /><stop
         style="stop-color:#d8c8b2;stop-opacity:0.30980393;"
         offset="1"
         id="stop16" /></linearGradient><linearGradient
       id="linearGradient13"
       inkscape:collect="always"><stop
         style="stop-color:#89a3ad;stop-opacity:1;"
         offset="0"
         id="stop13" /><stop
         style="stop-color:#d8c8b2;stop-opacity:0.30980393;"
         offset="1"
         id="stop14" /></linearGradient><linearGradient
       id="linearGradient11"
       inkscape:collect="always"><stop
         style="stop-color:#609bbb;stop-opacity:1;"
         offset="0"
         id="stop11" /><stop
         style="stop-color:#f2e2be;stop-opacity:0.30980393;"
         offset="1"
         id="stop12" /></linearGradient><inkscape:path-effect
       effect="bspline"
       id="path-effect11"
       is_visible="true"
       lpeversion="1.3"
       weight="33.333333"
       steps="2"
       helper_size="0"
       apply_no_weight="true"
       apply_with_weight="true"
       only_selected="false"
       uniform="false" /><inkscape:path-effect
       effect="bspline"
       id="path-effect10"
       is_visible="true"
       lpeversion="1.3"
       weight="33.333333"
       steps="2"
       helper_size="0"
       apply_no_weight="true"
       apply_with_weight="true"
       only_selected="false"
       uniform="false" /><inkscape:path-effect
       effect="bspline"
       id="path-effect9"
       is_visible="true"
       lpeversion="1.3"
       weight="33.333333"
       steps="2"
       helper_size="0"
       apply_no_weight="true"
       apply_with_weight="true"
       only_selected="false"
       uniform="false" /><inkscape:path-effect
       effect="bspline"
       id="path-effect8"
       is_visible="true"
       lpeversion="1.3"
       weight="33.333333"
       steps="2"
       helper_size="0"
       apply_no_weight="true"
       apply_with_weight="true"
       only_selected="false"
       uniform="false" /><inkscape:path-effect
       effect="bspline"
       id="path-effect7"
       is_visible="true"
       lpeversion="1.3"
       weight="33.333333"
       steps="2"
       helper_size="0"
       apply_no_weight="true"
       apply_with_weight="true"
       only_selected="false"
       uniform="false" /><inkscape:path-effect
       effect="bspline"
       id="path-effect6"
       is_visible="true"
       lpeversion="1.3"
       weight="33.333333"
       steps="2"
       helper_size="0"
       apply_no_weight="true"
       apply_with_weight="true"
       only_selected="false"
       uniform="false" /><inkscape:path-effect
       effect="bspline"
       id="path-effect5"
       is_visible="true"
       lpeversion="1.3"
       weight="33.333333"
       steps="2"
       helper_size="0"
       apply_no_weight="true"
       apply_with_weight="true"
       only_selected="false"
       uniform="false" /><inkscape:path-effect
       effect="bspline"
       id="path-effect4"
       is_visible="true"
       lpeversion="1.3"
       weight="33.333333"
       steps="2"
       helper_size="0"
       apply_no_weight="true"
       apply_with_weight="true"
       only_selected="false"
       uniform="false" /><inkscape:path-effect
       effect="bspline"
       id="path-effect3"
       is_visible="true"
       lpeversion="1.3"
       weight="33.333333"
       steps="2"
       helper_size="0"
       apply_no_weight="true"
       apply_with_weight="true"
       only_selected="false"
       uniform="false" /><inkscape:path-effect
       effect="bspline"
       id="path-effect2"
       is_visible="true"
       lpeversion="1.3"
       weight="33.333333"
       steps="2"
       helper_size="0"
       apply_no_weight="true"
       apply_with_weight="true"
       only_selected="false"
       uniform="false" /><inkscape:path-effect
       effect="bspline"
       id="path-effect1"
       is_visible="true"
       lpeversion="1.3"
       weight="33.333333"
       steps="2"
       helper_size="0"
       apply_no_weight="true"
       apply_with_weight="true"
       only_selected="false"
       uniform="false" /><linearGradient
       inkscape:collect="always"
       xlink:href="#linearGradient11"
       id="linearGradient12"
       x1="57.928534"
       y1="145.12505"
       x2="87.479521"
       y2="145.12505"
       gradientUnits="userSpaceOnUse" /><linearGradient
       inkscape:collect="always"
       xlink:href="#linearGradient13"
       id="linearGradient14"
       x1="91.850498"
       y1="140.48714"
       x2="112.21051"
       y2="140.48714"
       gradientUnits="userSpaceOnUse" /><linearGradient
       inkscape:collect="always"
       xlink:href="#linearGradient15"
       id="linearGradient16"
       x1="83.38812"
       y1="151.435"
       x2="109.52616"
       y2="151.435"
       gradientUnits="userSpaceOnUse" /><inkscape:path-effect
       effect="bspline"
       id="path-effect9-5"
       is_visible="true"
       lpeversion="1.3"
       weight="33.333333"
       steps="2"
       helper_size="0"
       apply_no_weight="true"
       apply_with_weight="true"
       only_selected="false"
       uniform="false" /><inkscape:path-effect
       effect="bspline"
       id="path-effect10-0"
       is_visible="true"
       lpeversion="1.3"
       weight="33.333333"
       steps="2"
       helper_size="0"
       apply_no_weight="true"
       apply_with_weight="true"
       only_selected="false"
       uniform="false" /><inkscape:path-effect
       effect="bspline"
       id="path-effect9-7"
       is_visible="true"
       lpeversion="1.3"
       weight="33.333333"
       steps="2"
       helper_size="0"
       apply_no_weight="true"
       apply_with_weight="true"
       only_selected="false"
       uniform="false" /><inkscape:path-effect
       effect="bspline"
       id="path-effect9-5-7"
       is_visible="true"
       lpeversion="1.3"
       weight="33.333333"
       steps="2"
       helper_size="0"
       apply_no_weight="true"
       apply_with_weight="true"
       only_selected="false"
       uniform="false" /><linearGradient
       inkscape:collect="always"
       xlink:href="#linearGradient11"
       id="linearGradient12-9"
       x1="57.928535"
       y1="145.12505"
       x2="87.479523"
       y2="145.12505"
       gradientUnits="userSpaceOnUse" /><inkscape:path-effect
       effect="bspline"
       id="path-effect2-6"
       is_visible="true"
       lpeversion="1.3"
       weight="33.333333"
       steps="2"
       helper_size="0"
       apply_no_weight="true"
       apply_with_weight="true"
       only_selected="false"
       uniform="false" /><linearGradient
       inkscape:collect="always"
       xlink:href="#linearGradient13"
       id="linearGradient14-1"
       x1="91.850494"
       y1="140.48714"
       x2="112.21051"
       y2="140.48714"
       gradientUnits="userSpaceOnUse" /><inkscape:path-effect
       effect="bspline"
       id="path-effect1-3"
       is_visible="true"
       lpeversion="1.3"
       weight="33.333333"
       steps="2"
       helper_size="0"
       apply_no_weight="true"
       apply_with_weight="true"
       only_selected="false"
       uniform="false" /><inkscape:path-effect
       effect="bspline"
       id="path-effect4-1"
       is_visible="true"
       lpeversion="1.3"
       weight="33.333333"
       steps="2"
       helper_size="0"
       apply_no_weight="true"
       apply_with_weight="true"
       only_selected="false"
       uniform="false" /><linearGradient
       inkscape:collect="always"
       xlink:href="#linearGradient15"
       id="linearGradient16-9"
       x1="83.388123"
       y1="151.435"
       x2="109.52616"
       y2="151.435"
       gradientUnits="userSpaceOnUse" /><inkscape:path-effect
       effect="bspline"
       id="path-effect3-8"
       is_visible="true"
       lpeversion="1.3"
       weight="33.333333"
       steps="2"
       helper_size="0"
       apply_no_weight="true"
       apply_with_weight="true"
       only_selected="false"
       uniform="false" /></defs><g
     inkscape:label="Layer 1"
     inkscape:groupmode="layer"
     id="layer1"><path
       style="opacity:0.31097;fill:url(#linearGradient14);fill-opacity:1;stroke-width:0.488156"
       d="m 92.331325,139.41963 c 0.838768,0.0503 2.918905,0.41938 4.797757,0.62069 1.878852,0.2013 3.556348,0.23485 5.972028,0.2684 2.41568,0.0336 5.56937,0.0671 7.39789,0.23486 1.82851,0.16776 2.33176,0.46971 0.82195,0.67101 -1.50982,0.20131 -5.03256,0.30196 -8.18635,0.33551 -3.153785,0.0336 -5.938433,0 -7.683074,-0.28519 -1.744642,-0.28519 -2.449189,-0.82199 -3.002777,-1.2246 -0.553589,-0.40261 -0.956191,-0.67101 -0.117424,-0.62068 z"
       id="path1"
       inkscape:path-effect="#path-effect1"
       inkscape:original-d="m 91.089952,139.1009 c 2.08014,0.36906 4.160279,0.73811 6.240417,1.10717 1.677564,0.0336 3.355061,0.0671 5.032591,0.10065 3.15383,0.0336 6.30752,0.0671 9.46128,0.10066 0.50327,0.30196 1.00652,0.60391 1.50978,0.90586 -3.52289,0.10066 -7.04563,0.20131 -10.56845,0.30196 -2.784756,-0.0335 -5.569403,-0.0671 -8.354105,-0.10065 -0.704578,-0.53683 -1.409126,-1.07363 -2.11369,-1.61044 -0.402614,-0.26841 -0.805215,-0.53681 -1.207823,-0.80521 z"
       transform="translate(6.1685572,-127.77726)" /><path
       style="opacity:0.31097;fill:url(#linearGradient12);fill-opacity:1;stroke-width:0.488156"
       d="m 57.975484,143.91541 c 0.234856,-0.11742 1.375575,0.15098 2.734391,0.16776 1.358816,0.0168 2.935664,-0.21808 4.730644,-0.41938 1.794979,-0.20131 3.807976,-0.36906 5.586175,-0.1342 1.778199,0.23486 3.321498,0.87231 4.881617,1.4259 1.560119,0.55359 3.136967,1.02329 4.780964,1.14071 1.643998,0.11743 3.355045,-0.11742 4.747407,-0.16775 1.392362,-0.0503 2.465961,0.0839 1.878802,0.31874 -0.587159,0.23485 -2.835006,0.57035 -5.301003,0.58713 -2.465998,0.0168 -5.149994,-0.28518 -7.431455,-0.68779 -2.281462,-0.40262 -4.160262,-0.90586 -5.988787,-1.02329 -1.828526,-0.11742 -3.606675,0.15098 -5.183568,0.2013 -1.576893,0.0503 -2.95244,-0.11743 -3.975742,-0.45294 -1.023301,-0.33551 -1.6943,-0.83876 -1.459445,-0.95619 z"
       id="path2"
       inkscape:path-effect="#path-effect2"
       inkscape:original-d="m 57.069617,143.52958 c 1.140722,0.26841 2.281443,0.53681 3.422163,0.80522 1.576911,-0.23486 3.153759,-0.46971 4.730638,-0.70456 2.01308,-0.16776 4.026077,-0.33551 6.039115,-0.50327 1.543359,0.63748 3.086658,1.27493 4.629985,1.91239 1.576912,0.46972 3.15376,0.93942 4.730639,1.40913 1.711116,-0.23486 3.422163,-0.46971 5.133245,-0.70457 1.073642,0.13421 2.147241,0.26841 3.22086,0.40261 -2.247937,0.33551 -4.495784,0.67101 -6.743676,1.00652 -2.684103,-0.30196 -5.368099,-0.60391 -8.052149,-0.90587 -1.878872,-0.50327 -3.757671,-1.00652 -5.636506,-1.50977 -1.778219,0.2684 -3.556367,0.53681 -5.33455,0.80521 -1.375603,-0.16776 -2.75115,-0.33551 -4.126727,-0.50326 -0.671026,-0.50327 -1.342025,-1.00652 -2.013037,-1.50978 z"
       transform="translate(6.1685572,-127.77726)" /><path
       style="opacity:0.31097;fill:url(#linearGradient16);fill-opacity:1;stroke-width:0.488156"
       d="m 83.859793,151.1288 c 0.28518,-0.25163 0.28518,-0.25163 0.28518,-0.25163 2.482747,-0.1342 4.965493,-0.26841 7.146302,-0.52004 2.180809,-0.25163 4.059605,-0.62068 5.586173,-0.50325 1.526567,0.11744 2.70081,0.72134 4.294482,1.10717 1.59368,0.38583 3.60668,0.55358 5.301,0.58713 1.69432,0.0335 3.06987,-0.0671 3.05308,0.25164 -0.0168,0.31874 -1.42589,1.05684 -3.30475,1.20781 -1.87886,0.15097 -4.22735,-0.28517 -6.00555,-0.55358 -1.778195,-0.26841 -2.985994,-0.36906 -4.797752,-0.31873 -1.811758,0.0503 -4.227354,0.25163 -6.492043,0.31873 -2.264689,0.0671 -4.378334,0 -5.149993,-0.28518 -0.77166,-0.28519 -0.201309,-0.78844 0.08387,-1.04007 z"
       id="path3"
       inkscape:path-effect="#path-effect3"
       inkscape:original-d="m 84.144973,150.87717 c 0,0 0,0 0,0 0,0 4.965493,-0.2684 7.44824,-0.40261 1.878872,-0.36906 3.757668,-0.73811 5.636503,-1.10717 1.174298,0.60393 2.348545,1.20782 3.522814,1.81174 2.01308,0.16775 4.02608,0.3355 6.03912,0.50325 1.3756,-0.10065 2.75115,-0.2013 4.12672,-0.30195 -1.40915,0.73813 -2.81825,1.47623 -4.22738,2.21434 -2.34859,-0.43617 -4.69708,-0.87232 -7.045628,-1.30847 -1.207847,-0.10066 -2.415646,-0.20131 -3.623466,-0.30196 -2.415696,0.20131 -4.831292,0.40261 -7.246937,0.60391 -2.113733,-0.0671 -4.227378,-0.1342 -6.341068,-0.2013 0.570371,-0.50327 1.140722,-1.00652 1.711082,-1.50978 z"
       transform="translate(6.1685572,-127.77726)" /><path
       style="opacity:0.31097;fill:#b8bcb6;fill-opacity:1;stroke-width:0.488156"
       d="m 102.86622,145.962 c 0.40261,0.28518 2.21434,0.88909 4.51259,1.0904 2.29824,0.2013 5.08289,0 7.49855,-0.0168 2.41567,-0.0168 4.46222,0.15097 6.76046,0.35228 2.29825,0.2013 4.84804,0.43615 6.86109,0.16774 2.01306,-0.26841 3.48926,-1.04007 3.48924,-1.29169 -1e-5,-0.25163 -1.47621,0.0168 -3.28796,0.21808 -1.81176,0.20131 -3.95896,0.33551 -6.44173,0.11742 -2.48278,-0.21808 -5.30098,-0.78844 -7.41468,-0.87231 -2.1137,-0.0839 -3.5228,0.31873 -5.13325,0.4026 -1.61045,0.0839 -3.42214,-0.15097 -4.83128,-0.28518 -1.40914,-0.1342 -2.41563,-0.16775 -2.01303,0.11743 z"
       id="path4"
       inkscape:path-effect="#path-effect4"
       inkscape:original-d="m 101.4571,145.64327 c 1.81173,0.60391 3.62346,1.20783 5.4352,1.81174 2.78475,-0.20131 5.5694,-0.40261 8.3541,-0.60391 2.04663,0.16775 4.09318,0.3355 6.13977,0.50325 2.5499,0.23486 5.09969,0.46971 7.64954,0.70457 1.47626,-0.77168 2.95246,-1.54333 4.42868,-2.315 -1.47625,0.26841 -2.95245,0.53681 -4.42868,0.80522 -2.14728,0.1342 -4.29448,0.2684 -6.44172,0.40261 -2.81831,-0.57037 -5.63651,-1.14072 -8.45476,-1.71109 -1.40915,0.40262 -2.81825,0.80522 -4.22738,1.20783 -1.81177,-0.23486 -3.62346,-0.46971 -5.4352,-0.70457 -1.00654,-0.0335 -2.01303,-0.0671 -3.01955,-0.10065 z"
       transform="translate(6.1685572,-127.77726)" /><path
       style="opacity:0.31097;fill:url(#linearGradient14-1);fill-opacity:1;stroke-width:0.488156"
       d="m 92.331325,139.41963 c 0.838768,0.0503 2.918905,0.41938 4.797757,0.62069 1.878852,0.2013 3.556348,0.23485 5.972028,0.2684 2.41568,0.0336 5.56937,0.0671 7.39789,0.23486 1.82851,0.16776 2.33176,0.46971 0.82195,0.67101 -1.50982,0.20131 -5.03256,0.30196 -8.18635,0.33551 -3.153785,0.0336 -5.938433,0 -7.683074,-0.28519 -1.744642,-0.28519 -2.449189,-0.82199 -3.002777,-1.2246 -0.553589,-0.40261 -0.956191,-0.67101 -0.117424,-0.62068 z"
       id="path1-0"
       inkscape:path-effect="#path-effect1-3"
       inkscape:original-d="m 91.089952,139.1009 c 2.08014,0.36906 4.160279,0.73811 6.240417,1.10717 1.677564,0.0336 3.355061,0.0671 5.032591,0.10065 3.15383,0.0336 6.30752,0.0671 9.46128,0.10066 0.50327,0.30196 1.00652,0.60391 1.50978,0.90586 -3.52289,0.10066 -7.04563,0.20131 -10.56845,0.30196 -2.784756,-0.0335 -5.569403,-0.0671 -8.354105,-0.10065 -0.704578,-0.53683 -1.409126,-1.07363 -2.11369,-1.61044 -0.402614,-0.26841 -0.805215,-0.53681 -1.207823,-0.80521 z"
       transform="matrix(-1,0,0,1,412.26561,-120.48074)" /><path
       style="opacity:0.31097;fill:url(#linearGradient12-9);fill-opacity:1;stroke-width:0.488156"
       d="m 57.975484,143.91541 c 0.234856,-0.11742 1.375575,0.15098 2.734391,0.16776 1.358816,0.0168 2.935664,-0.21808 4.730644,-0.41938 1.794979,-0.20131 3.807976,-0.36906 5.586175,-0.1342 1.778199,0.23486 3.321498,0.87231 4.881617,1.4259 1.560119,0.55359 3.136967,1.02329 4.780964,1.14071 1.643998,0.11743 3.355045,-0.11742 4.747407,-0.16775 1.392362,-0.0503 2.465961,0.0839 1.878802,0.31874 -0.587159,0.23485 -2.835006,0.57035 -5.301003,0.58713 -2.465998,0.0168 -5.149994,-0.28518 -7.431455,-0.68779 -2.281462,-0.40262 -4.160262,-0.90586 -5.988787,-1.02329 -1.828526,-0.11742 -3.606675,0.15098 -5.183568,0.2013 -1.576893,0.0503 -2.95244,-0.11743 -3.975742,-0.45294 -1.023301,-0.33551 -1.6943,-0.83876 -1.459445,-0.95619 z"
       id="path2-3"
       inkscape:path-effect="#path-effect2-6"
       inkscape:original-d="m 57.069617,143.52958 c 1.140722,0.26841 2.281443,0.53681 3.422163,0.80522 1.576911,-0.23486 3.153759,-0.46971 4.730638,-0.70456 2.01308,-0.16776 4.026077,-0.33551 6.039115,-0.50327 1.543359,0.63748 3.086658,1.27493 4.629985,1.91239 1.576912,0.46972 3.15376,0.93942 4.730639,1.40913 1.711116,-0.23486 3.422163,-0.46971 5.133245,-0.70457 1.073642,0.13421 2.147241,0.26841 3.22086,0.40261 -2.247937,0.33551 -4.495784,0.67101 -6.743676,1.00652 -2.684103,-0.30196 -5.368099,-0.60391 -8.052149,-0.90587 -1.878872,-0.50327 -3.757671,-1.00652 -5.636506,-1.50977 -1.778219,0.2684 -3.556367,0.53681 -5.33455,0.80521 -1.375603,-0.16776 -2.75115,-0.33551 -4.126727,-0.50326 -0.671026,-0.50327 -1.342025,-1.00652 -2.013037,-1.50978 z"
       transform="matrix(-1,0,0,1,412.26561,-120.48074)" /><path
       style="opacity:0.31097;fill:url(#linearGradient16-9);fill-opacity:1;stroke-width:0.488156"
       d="m 83.859793,151.1288 c 0.28518,-0.25163 0.28518,-0.25163 0.28518,-0.25163 2.482747,-0.1342 4.965493,-0.26841 7.146302,-0.52004 2.180809,-0.25163 4.059605,-0.62068 5.586173,-0.50325 1.526567,0.11744 2.70081,0.72134 4.294482,1.10717 1.59368,0.38583 3.60668,0.55358 5.301,0.58713 1.69432,0.0335 3.06987,-0.0671 3.05308,0.25164 -0.0168,0.31874 -1.42589,1.05684 -3.30475,1.20781 -1.87886,0.15097 -4.22735,-0.28517 -6.00555,-0.55358 -1.778195,-0.26841 -2.985994,-0.36906 -4.797752,-0.31873 -1.811758,0.0503 -4.227354,0.25163 -6.492043,0.31873 -2.264689,0.0671 -4.378334,0 -5.149993,-0.28518 -0.77166,-0.28519 -0.201309,-0.78844 0.08387,-1.04007 z"
       id="path3-6"
       inkscape:path-effect="#path-effect3-8"
       inkscape:original-d="m 84.144973,150.87717 c 0,0 0,0 0,0 0,0 4.965493,-0.2684 7.44824,-0.40261 1.878872,-0.36906 3.757668,-0.73811 5.636503,-1.10717 1.174298,0.60393 2.348545,1.20782 3.522814,1.81174 2.01308,0.16775 4.02608,0.3355 6.03912,0.50325 1.3756,-0.10065 2.75115,-0.2013 4.12672,-0.30195 -1.40915,0.73813 -2.81825,1.47623 -4.22738,2.21434 -2.34859,-0.43617 -4.69708,-0.87232 -7.045628,-1.30847 -1.207847,-0.10066 -2.415646,-0.20131 -3.623466,-0.30196 -2.415696,0.20131 -4.831292,0.40261 -7.246937,0.60391 -2.113733,-0.0671 -4.227378,-0.1342 -6.341068,-0.2013 0.570371,-0.50327 1.140722,-1.00652 1.711082,-1.50978 z"
       transform="matrix(-1,0,0,1,412.26561,-120.48074)" /><path
       style="opacity:0.31097;fill:#b8bcb6;fill-opacity:1;stroke-width:0.488156"
       d="m 102.86622,145.962 c 0.40261,0.28518 2.21434,0.88909 4.51259,1.0904 2.29824,0.2013 5.08289,0 7.49855,-0.0168 2.41567,-0.0168 4.46222,0.15097 6.76046,0.35228 2.29825,0.2013 4.84804,0.43615 6.86109,0.16774 2.01306,-0.26841 3.48926,-1.04007 3.48924,-1.29169 -1e-5,-0.25163 -1.47621,0.0168 -3.28796,0.21808 -1.81176,0.20131 -3.95896,0.33551 -6.44173,0.11742 -2.48278,-0.21808 -5.30098,-0.78844 -7.41468,-0.87231 -2.1137,-0.0839 -3.5228,0.31873 -5.13325,0.4026 -1.61045,0.0839 -3.42214,-0.15097 -4.83128,-0.28518 -1.40914,-0.1342 -2.41563,-0.16775 -2.01303,0.11743 z"
       id="path4-1"
       inkscape:path-effect="#path-effect4-1"
       inkscape:original-d="m 101.4571,145.64327 c 1.81173,0.60391 3.62346,1.20783 5.4352,1.81174 2.78475,-0.20131 5.5694,-0.40261 8.3541,-0.60391 2.04663,0.16775 4.09318,0.3355 6.13977,0.50325 2.5499,0.23486 5.09969,0.46971 7.64954,0.70457 1.47626,-0.77168 2.95246,-1.54333 4.42868,-2.315 -1.47625,0.26841 -2.95245,0.53681 -4.42868,0.80522 -2.14728,0.1342 -4.29448,0.2684 -6.44172,0.40261 -2.81831,-0.57037 -5.63651,-1.14072 -8.45476,-1.71109 -1.40915,0.40262 -2.81825,0.80522 -4.22738,1.20783 -1.81177,-0.23486 -3.62346,-0.46971 -5.4352,-0.70457 -1.00654,-0.0335 -2.01303,-0.0671 -3.01955,-0.10065 z"
       transform="matrix(-1,0,0,1,412.26561,-120.48074)" /><path
       style="opacity:0.31097;fill:#e9c99e;fill-opacity:1;stroke-width:0.488156"
       d="m 139.50351,141.08038 c 0.70456,-0.0671 3.12021,0.13421 4.81453,0.31874 1.69431,0.18453 2.66726,0.35228 4.22739,0.36905 1.56012,0.0168 3.70732,-0.11742 5.56939,0.0503 1.86208,0.16776 3.43892,0.63745 5.03259,0.68777 1.59368,0.0503 3.20407,-0.31872 4.71386,-0.25162 1.5098,0.0671 2.9189,0.57036 4.5629,0.63746 1.644,0.0671 3.52279,-0.30195 3.89184,-0.2013 0.36905,0.10066 -0.77165,0.67101 -2.41565,0.90586 -1.64401,0.23486 -3.79121,0.13421 -5.08291,-0.0168 -1.2917,-0.15098 -1.72785,-0.35228 -2.61695,-0.25163 -0.88911,0.10066 -2.23111,0.50326 -3.77445,0.48648 -1.54335,-0.0168 -3.28795,-0.45293 -4.83129,-0.65423 -1.54335,-0.20131 -2.88534,-0.16776 -4.10995,-0.0671 -1.22461,0.10066 -2.33176,0.26841 -3.75768,0.0671 -1.42592,-0.20131 -3.17052,-0.77166 -4.5461,-1.2246 -1.37559,-0.45293 -2.38209,-0.78844 -1.67752,-0.85554 z"
       id="path5"
       inkscape:path-effect="#path-effect5"
       inkscape:original-d="m 137.79243,140.81198 c 2.41564,0.20131 4.83129,0.40261 7.24693,0.60391 0.97299,0.16776 1.94594,0.33551 2.91891,0.50326 2.14728,-0.1342 4.29448,-0.2684 6.44172,-0.4026 1.57691,0.46971 3.15375,0.93941 4.73063,1.40912 1.61047,-0.36906 3.22086,-0.73811 4.8313,-1.10717 1.40915,0.50327 2.81825,1.00652 4.22737,1.50978 1.87888,-0.36907 3.75767,-0.73811 5.63651,-1.10717 -1.14074,0.57037 -2.28144,1.14072 -3.42216,1.71108 -2.14729,-0.10065 -4.29449,-0.2013 -6.44172,-0.30195 -0.43617,-0.20131 -0.87232,-0.40261 -1.30848,-0.60392 -1.34205,0.40262 -2.68405,0.80522 -4.02607,1.20783 -1.74467,-0.43617 -3.48927,-0.87232 -5.2339,-1.30848 -1.34206,0.0335 -2.68405,0.0671 -4.02608,0.10065 -1.10719,0.16776 -2.21434,0.33551 -3.32151,0.50326 -1.74467,-0.57037 -3.48927,-1.14072 -5.2339,-1.71108 -1.00654,-0.33551 -2.01304,-0.67101 -3.01955,-1.00652 z"
       transform="rotate(-3.8014005,-1755.65,-234.0868)" /><path
       style="opacity:0.31097;fill:#e7cd8e;fill-opacity:1;stroke-width:0.488156"
       d="m 190.0643,144.16704 c 0.43616,0.33551 2.315,0.80522 4.0261,0.9562 1.71109,0.15097 3.25439,-0.0168 5.28423,-0.20131 2.02983,-0.18453 4.54608,-0.38583 8.18637,-0.0335 3.64029,0.35229 8.40439,1.25814 11.8098,0.92262 3.40541,-0.33552 5.45195,-1.91237 7.95151,-2.53305 2.49955,-0.62069 5.45194,-0.28519 5.88808,-0.41939 0.43614,-0.13421 -1.64396,-0.73811 -3.89187,-0.92264 -2.24792,-0.18452 -4.66352,0.0503 -6.50882,0.73812 -1.8453,0.6878 -3.1202,1.8285 -5.21714,2.13045 -2.09694,0.30195 -5.01579,-0.23485 -7.43145,-0.67101 -2.41567,-0.43616 -4.32801,-0.77166 -6.67659,-0.63745 -2.34857,0.13421 -5.13321,0.73811 -7.17981,0.8052 -2.0466,0.0671 -3.35505,-0.4026 -4.51256,-0.5368 -1.15751,-0.1342 -2.16401,0.0671 -1.72785,0.4026 z"
       id="path6"
       inkscape:path-effect="#path-effect6"
       inkscape:original-d="m 188.62163,144.03284 c 1.87883,0.46971 3.75767,0.93942 5.6365,1.40913 1.54336,-0.16776 3.08666,-0.33551 4.62999,-0.50326 2.51634,-0.20131 5.03259,-0.40261 7.54889,-0.60391 4.76428,0.90588 9.52838,1.81173 14.29257,2.7176 2.04663,-1.57691 4.09317,-3.15376 6.13976,-4.73064 2.95252,0.33551 5.90491,0.67101 8.85737,1.00652 -2.08018,-0.60393 -4.16028,-1.20782 -6.24042,-1.81173 -2.41569,0.23485 -4.83129,0.4697 -7.24694,0.70456 -1.27495,1.14074 -2.54985,2.28144 -3.82477,3.42216 -2.91896,-0.53682 -5.83781,-1.07362 -8.75671,-1.61043 -1.91243,-0.33551 -3.82477,-0.67101 -5.73716,-1.00652 -2.78476,0.60393 -5.5694,1.20783 -8.35411,1.81174 -1.30849,-0.46972 -2.61694,-0.93942 -3.92542,-1.40913 -1.00654,0.20131 -2.01304,0.40261 -3.01955,0.60391 z"
       transform="rotate(2.9812626,2685.7955,321.35436)" /><path
       style="opacity:0.31097;fill:#e7cd8e;fill-opacity:1;stroke-width:0.488156"
       d="m 249.44891,148.56218 c -0.83876,0.1342 -4.66353,-0.1342 -8.30381,0.0503 -3.64028,0.18454 -7.09593,0.82199 -10.45102,1.19104 -3.3551,0.36906 -6.60944,0.46971 -9.5787,0.83877 -2.96926,0.36907 -5.65325,1.00652 -6.34102,0.92263 -0.68778,-0.0839 0.62067,-0.88908 2.43242,-1.54333 1.81176,-0.65424 4.12671,-1.15749 6.08943,-1.29169 1.96273,-0.1342 3.57313,0.10065 5.06615,0.0168 1.49301,-0.0839 2.86856,-0.48648 4.2106,-0.70456 1.34204,-0.21808 2.65049,-0.25163 4.16029,-0.48649 1.50979,-0.23486 3.22083,-0.671 4.79773,-0.7381 1.57689,-0.0671 3.01954,0.23485 4.81452,0.65423 1.79498,0.41939 3.94218,0.9562 3.10341,1.0904 z"
       id="path7"
       inkscape:path-effect="#path-effect7"
       inkscape:original-d="m 252.43492,148.96479 c -3.82477,-0.26841 -7.64954,-0.53682 -11.47432,-0.80522 -3.45578,0.63747 -6.91143,1.27492 -10.36714,1.91239 -3.25448,0.10065 -6.50882,0.2013 -9.76323,0.30195 -2.68411,0.63747 -5.3681,1.27492 -8.05215,1.91239 1.3085,-0.80523 2.61695,-1.61043 3.92542,-2.41565 2.31504,-0.50327 4.62999,-1.00652 6.94498,-1.50978 1.61046,0.23486 3.22086,0.46971 4.83129,0.70457 1.3756,-0.40262 2.75115,-0.80522 4.12673,-1.20783 1.3085,-0.0335 2.61695,-0.0671 3.92542,-0.10065 1.71112,-0.43617 3.42216,-0.87232 5.13325,-1.30847 1.4427,0.30196 2.88535,0.60391 4.32803,0.90586 2.14728,0.53683 4.29448,1.07362 6.44172,1.61044 z"
       transform="rotate(5.1191039,1619.948,162.95534)" /><path
       style="opacity:0.31097;fill:#e9c99e;fill-opacity:1;stroke-width:0.488156"
       d="m 147.57243,147.79051 c -0.31873,0.0671 -0.31873,0.0671 -0.31873,0.0671 3.48927,-0.40261 6.97853,-0.80521 9.86391,-0.6039 2.88538,0.20131 5.16677,1.00651 7.71664,1.52655 2.54988,0.52004 5.36808,0.75489 8.38767,0.83876 3.01959,0.0839 6.24038,0.0168 8.89091,0.26841 2.65052,0.25164 4.73061,0.82199 5.40162,0.85553 0.671,0.0335 -0.0671,-0.4697 -1.30849,-0.93942 -1.24139,-0.46971 -2.98598,-0.90586 -5.20035,-1.05684 -2.21437,-0.15097 -4.89837,-0.0168 -7.56567,-0.0671 -2.6673,-0.0503 -5.31775,-0.28518 -7.59921,-0.73812 -2.28146,-0.45294 -4.19381,-1.12394 -5.68683,-1.57687 -1.49301,-0.45294 -2.5666,-0.68779 -4.32804,-0.4697 -1.76143,0.21809 -4.21058,0.88909 -5.75391,1.2917 -1.54334,0.4026 -2.18079,0.5368 -2.49952,0.6039 z"
       id="path8"
       inkscape:path-effect="#path-effect8"
       inkscape:original-d="m 147.2537,147.85761 c 0,0 0,0 0,0 0,0 6.97853,-0.80521 10.4678,-1.20782 2.28149,0.80523 4.56288,1.61043 6.84432,2.41565 2.81831,0.23486 5.63651,0.4697 8.45476,0.70456 3.22093,-0.0671 6.44172,-0.1342 9.66258,-0.20131 2.08019,0.57038 4.16028,1.14073 6.24042,1.71109 -0.73813,-0.50327 -1.47623,-1.00652 -2.21434,-1.50978 -1.74467,-0.43617 -3.48926,-0.87232 -5.2339,-1.30848 -2.6841,0.13421 -5.3681,0.26841 -8.05215,0.40261 -2.65055,-0.23486 -5.301,-0.46971 -7.9515,-0.70456 -1.91242,-0.67103 -3.82477,-1.34203 -5.73715,-2.01304 -1.07365,-0.23486 -2.14724,-0.46971 -3.22086,-0.70456 -2.44925,0.67103 -4.8984,1.34202 -7.34759,2.01304 -0.63748,0.1342 -1.27493,0.2684 -1.91239,0.4026 z"
       transform="rotate(-6.2100422,-962.05595,-12.932768)" /><path
       style="opacity:0.31097;fill:#e7cd8e;fill-opacity:1;stroke-width:0.488156"
       d="m 198.72037,148.52863 c 0.3355,0.16775 1.30847,-0.10065 2.95248,0.0168 1.644,0.11743 3.95894,0.62068 7.23017,0.72133 3.27123,0.10065 7.49852,-0.2013 10.6523,0.0671 3.15378,0.26841 5.23388,1.10716 5.6868,1.0736 0.45292,-0.0336 -0.72132,-0.93941 -2.14724,-1.50977 -1.42592,-0.57036 -3.10342,-0.80521 -5.25068,-0.68778 -2.14727,0.11743 -4.76417,0.58713 -7.33081,0.52002 -2.56665,-0.0671 -5.0829,-0.671 -6.9953,-1.02328 -1.9124,-0.35229 -3.22085,-0.45294 -4.02607,-0.2013 -0.80521,0.25163 -1.10716,0.85553 -0.77165,1.02329 z"
       id="path9"
       inkscape:path-effect="#path-effect9"
       inkscape:original-d="m 198.0829,148.96479 c 0.97297,-0.26841 1.94594,-0.53682 2.91891,-0.80522 2.31504,0.50327 4.62998,1.00652 6.94498,1.50978 4.22746,-0.30196 8.45475,-0.60391 12.68213,-0.90587 2.08018,0.83878 4.16028,1.67753 6.24042,2.5163 -1.1743,-0.90589 -2.34854,-1.81174 -3.52281,-2.7176 -1.67757,-0.23486 -3.35507,-0.46971 -5.0326,-0.70457 -2.617,0.46972 -5.2339,0.93942 -7.85085,1.40913 -2.51634,-0.60392 -5.03259,-1.20782 -7.54889,-1.81173 -1.3085,-0.10066 -2.61695,-0.20131 -3.92542,-0.30196 -0.30196,0.60392 -0.60391,1.20782 -0.90587,1.81174 z"
       transform="rotate(-4.706334,-1356.904,232.84423)" /><path
       style="opacity:0.31097;fill:#e7cd8e;fill-opacity:1;stroke-width:0.488156"
       d="m 198.72037,148.52863 c 0.3355,0.16775 1.30847,-0.10065 2.95248,0.0168 1.644,0.11743 3.95894,0.62068 7.23017,0.72133 3.27123,0.10065 7.49852,-0.2013 10.6523,0.0671 3.15378,0.26841 5.23388,1.10716 5.6868,1.0736 0.45292,-0.0336 -0.72132,-0.93941 -2.14724,-1.50977 -1.42592,-0.57036 -3.10342,-0.80521 -5.25068,-0.68778 -2.14727,0.11743 -4.76417,0.58713 -7.33081,0.52002 -2.56665,-0.0671 -5.0829,-0.671 -6.9953,-1.02328 -1.9124,-0.35229 -3.22085,-0.45294 -4.02607,-0.2013 -0.80521,0.25163 -1.10716,0.85553 -0.77165,1.02329 z"
       id="path9-0"
       inkscape:path-effect="#path-effect9-7"
       inkscape:original-d="m 198.0829,148.96479 c 0.97297,-0.26841 1.94594,-0.53682 2.91891,-0.80522 2.31504,0.50327 4.62998,1.00652 6.94498,1.50978 4.22746,-0.30196 8.45475,-0.60391 12.68213,-0.90587 2.08018,0.83878 4.16028,1.67753 6.24042,2.5163 -1.1743,-0.90589 -2.34854,-1.81174 -3.52281,-2.7176 -1.67757,-0.23486 -3.35507,-0.46971 -5.0326,-0.70457 -2.617,0.46972 -5.2339,0.93942 -7.85085,1.40913 -2.51634,-0.60392 -5.03259,-1.20782 -7.54889,-1.81173 -1.3085,-0.10066 -2.61695,-0.20131 -3.92542,-0.30196 -0.30196,0.60392 -0.60391,1.20782 -0.90587,1.81174 z"
       transform="rotate(-4.706334,-1457.0035,932.94267)" /><path
       style="opacity:0.31097;fill:#e7cd8e;fill-opacity:1;stroke-width:0.488156"
       d="m 198.72037,148.52863 c 0.3355,0.16775 1.30847,-0.10065 2.95248,0.0168 1.644,0.11743 3.95894,0.62068 7.23017,0.72133 3.27123,0.10065 7.49852,-0.2013 10.6523,0.0671 3.15378,0.26841 5.23388,1.10716 5.6868,1.0736 0.45292,-0.0336 -0.72132,-0.93941 -2.14724,-1.50977 -1.42592,-0.57036 -3.10342,-0.80521 -5.25068,-0.68778 -2.14727,0.11743 -4.76417,0.58713 -7.33081,0.52002 -2.56665,-0.0671 -5.0829,-0.671 -6.9953,-1.02328 -1.9124,-0.35229 -3.22085,-0.45294 -4.02607,-0.2013 -0.80521,0.25163 -1.10716,0.85553 -0.77165,1.02329 z"
       id="path9-9"
       inkscape:path-effect="#path-effect9-5"
       inkscape:original-d="m 198.0829,148.96479 c 0.97297,-0.26841 1.94594,-0.53682 2.91891,-0.80522 2.31504,0.50327 4.62998,1.00652 6.94498,1.50978 4.22746,-0.30196 8.45475,-0.60391 12.68213,-0.90587 2.08018,0.83878 4.16028,1.67753 6.24042,2.5163 -1.1743,-0.90589 -2.34854,-1.81174 -3.52281,-2.7176 -1.67757,-0.23486 -3.35507,-0.46971 -5.0326,-0.70457 -2.617,0.46972 -5.2339,0.93942 -7.85085,1.40913 -2.51634,-0.60392 -5.03259,-1.20782 -7.54889,-1.81173 -1.3085,-0.10066 -2.61695,-0.20131 -3.92542,-0.30196 -0.30196,0.60392 -0.60391,1.20782 -0.90587,1.81174 z"
       transform="matrix(0.99862642,0.05239538,0.05239538,-0.99862642,37.072371,156.60036)" /><path
       style="opacity:0.31097;fill:#e7cd8e;fill-opacity:1;stroke-width:0.488156"
       d="m 198.72037,148.52863 c 0.3355,0.16775 1.30847,-0.10065 2.95248,0.0168 1.644,0.11743 3.95894,0.62068 7.23017,0.72133 3.27123,0.10065 7.49852,-0.2013 10.6523,0.0671 3.15378,0.26841 5.23388,1.10716 5.6868,1.0736 0.45292,-0.0336 -0.72132,-0.93941 -2.14724,-1.50977 -1.42592,-0.57036 -3.10342,-0.80521 -5.25068,-0.68778 -2.14727,0.11743 -4.76417,0.58713 -7.33081,0.52002 -2.56665,-0.0671 -5.0829,-0.671 -6.9953,-1.02328 -1.9124,-0.35229 -3.22085,-0.45294 -4.02607,-0.2013 -0.80521,0.25163 -1.10716,0.85553 -0.77165,1.02329 z"
       id="path9-9-2"
       inkscape:path-effect="#path-effect9-5-7"
       inkscape:original-d="m 198.0829,148.96479 c 0.97297,-0.26841 1.94594,-0.53682 2.91891,-0.80522 2.31504,0.50327 4.62998,1.00652 6.94498,1.50978 4.22746,-0.30196 8.45475,-0.60391 12.68213,-0.90587 2.08018,0.83878 4.16028,1.67753 6.24042,2.5163 -1.1743,-0.90589 -2.34854,-1.81174 -3.52281,-2.7176 -1.67757,-0.23486 -3.35507,-0.46971 -5.0326,-0.70457 -2.617,0.46972 -5.2339,0.93942 -7.85085,1.40913 -2.51634,-0.60392 -5.03259,-1.20782 -7.54889,-1.81173 -1.3085,-0.10066 -2.61695,-0.20131 -3.92542,-0.30196 -0.30196,0.60392 -0.60391,1.20782 -0.90587,1.81174 z"
       transform="matrix(0.99862642,0.05239538,0.05239538,-0.99862642,-67.116454,158.53749)" /><path
       style="opacity:0.228188;fill:#e7cd8e;fill-opacity:1;stroke-width:0.488156"
       d="m 267.56625,143.61346 c 0.3355,0.31873 2.41565,-0.0839 4.17707,0.0336 1.76143,0.11743 3.20407,0.75488 5.20035,1.02328 1.99628,0.26841 4.5461,0.16776 6.60948,-0.0671 2.06338,-0.23486 3.64022,-0.6039 5.26745,-1.07362 1.62722,-0.46972 3.30471,-1.04007 3.03629,-1.17427 -0.26842,-0.1342 -2.48272,0.16775 -5.38489,0.35228 -2.90218,0.18453 -6.49202,0.25163 -9.34384,-0.0168 -2.85183,-0.26841 -4.96548,-0.87231 -6.7269,-0.65422 -1.76142,0.2181 -3.17052,1.25814 -2.83501,1.57687 z"
       id="path10"
       inkscape:path-effect="#path-effect10"
       inkscape:original-d="m 265.82162,144.3348 c 2.08013,-0.40261 4.16028,-0.80522 6.24041,-1.20783 1.44272,0.63748 2.88536,1.27493 4.32803,1.91239 2.54989,-0.10065 5.09971,-0.2013 7.64955,-0.30195 1.57692,-0.36907 3.15376,-0.73812 4.73065,-1.10717 1.67756,-0.57038 3.35505,-1.14073 5.03258,-1.71109 -2.21437,0.30196 -4.42867,0.60391 -6.64302,0.90587 -3.59,0.0671 -7.17984,0.1342 -10.76976,0.2013 -2.11373,-0.60392 -4.22738,-1.20782 -6.34106,-1.81173 -1.40917,1.04009 -2.81826,2.08014 -4.22738,3.12021 z"
       transform="translate(-3.3364381,-130.87191)" /><path
       style="opacity:0.228188;fill:#e7cd8e;fill-opacity:1;stroke-width:0.488156"
       d="m 267.56625,143.61346 c 0.3355,0.31873 2.41565,-0.0839 4.17707,0.0336 1.76143,0.11743 3.20407,0.75488 5.20035,1.02328 1.99628,0.26841 4.5461,0.16776 6.60948,-0.0671 2.06338,-0.23486 3.64022,-0.6039 5.26745,-1.07362 1.62722,-0.46972 3.30471,-1.04007 3.03629,-1.17427 -0.26842,-0.1342 -2.48272,0.16775 -5.38489,0.35228 -2.90218,0.18453 -6.49202,0.25163 -9.34384,-0.0168 -2.85183,-0.26841 -4.96548,-0.87231 -6.7269,-0.65422 -1.76142,0.2181 -3.17052,1.25814 -2.83501,1.57687 z"
       id="path10-6"
       inkscape:path-effect="#path-effect10-0"
       inkscape:original-d="m 265.82162,144.3348 c 2.08013,-0.40261 4.16028,-0.80522 6.24041,-1.20783 1.44272,0.63748 2.88536,1.27493 4.32803,1.91239 2.54989,-0.10065 5.09971,-0.2013 7.64955,-0.30195 1.57692,-0.36907 3.15376,-0.73812 4.73065,-1.10717 1.67756,-0.57038 3.35505,-1.14073 5.03258,-1.71109 -2.21437,0.30196 -4.42867,0.60391 -6.64302,0.90587 -3.59,0.0671 -7.17984,0.1342 -10.76976,0.2013 -2.11373,-0.60392 -4.22738,-1.20782 -6.34106,-1.81173 -1.40917,1.04009 -2.81826,2.08014 -4.22738,3.12021 z"
       transform="translate(-10.09361,-120.21049)" /><path
       style="opacity:0.246612;fill:#e7cd8e;fill-opacity:1;stroke-width:0.488156"
       d="m 299.40581,145.35809 c 1.44268,-0.35229 3.35506,-0.88909 5.40166,-1.40913 2.04661,-0.52004 4.22736,-1.02329 6.54237,-0.98974 2.31501,0.0336 4.76418,0.60391 5.30097,0.50325 0.53678,-0.10067 -0.83876,-0.87231 -3.01957,-1.30846 -2.18082,-0.43616 -5.16678,-0.53681 -7.80052,-0.0335 -2.63374,0.50327 -4.91514,1.61042 -6.49203,2.36531 -1.57689,0.75489 -2.44919,1.15749 -2.39885,1.27492 0.0503,0.11742 1.02329,-0.0503 2.46597,-0.40261 z"
       id="path11"
       inkscape:path-effect="#path-effect11"
       inkscape:original-d="m 298.93608,145.54262 c 1.91241,-0.53681 3.82479,-1.07362 5.73717,-1.61043 2.18083,-0.50327 4.36158,-1.00652 6.54238,-1.50978 2.44922,0.57037 4.89839,1.14072 7.34758,1.71108 -1.37562,-0.77168 -2.75116,-1.54332 -4.12673,-2.31499 -2.98606,-0.10065 -5.97202,-0.2013 -8.95802,-0.30195 -2.28148,1.10719 -4.56288,2.21434 -6.84433,3.32151 -0.87233,0.40261 -1.74463,0.80521 -2.61694,1.20782 0.97298,-0.16776 1.94594,-0.33551 2.91889,-0.50326 z"
       transform="translate(-14.167712,-125.34575)" /></g></svg>
